<mxfile host="Electron" modified="2023-10-10T05:34:52.996Z" agent="Mozilla/5.0 (Windows NT 10.0; Win64; x64) AppleWebKit/537.36 (KHTML, like Gecko) draw.io/22.0.2 Chrome/114.0.5735.289 Electron/25.8.4 Safari/537.36" etag="SOf9GV7gIUTXXCiZ4YSI" version="22.0.2" type="device">
  <diagram name="Page-1" id="r93tfcxXo3c3T6XeT-mS">
    <mxGraphModel dx="2573" dy="1008" grid="1" gridSize="10" guides="1" tooltips="1" connect="1" arrows="1" fold="1" page="1" pageScale="1" pageWidth="850" pageHeight="1100" math="0" shadow="0">
      <root>
        <mxCell id="0" />
        <mxCell id="1" parent="0" />
        <mxCell id="Zj26YUUUnROJcNx6tf7O-12" style="edgeStyle=orthogonalEdgeStyle;rounded=0;orthogonalLoop=1;jettySize=auto;html=1;exitX=0.5;exitY=0.5;exitDx=0;exitDy=0;exitPerimeter=0;" parent="1" source="Zj26YUUUnROJcNx6tf7O-1" target="Zj26YUUUnROJcNx6tf7O-11" edge="1">
          <mxGeometry relative="1" as="geometry" />
        </mxCell>
        <mxCell id="0lM58iqvCvIawj70J857-2" style="edgeStyle=orthogonalEdgeStyle;rounded=0;orthogonalLoop=1;jettySize=auto;html=1;exitX=0.5;exitY=0.5;exitDx=0;exitDy=0;exitPerimeter=0;entryX=0;entryY=0.5;entryDx=0;entryDy=0;" edge="1" parent="1" source="Zj26YUUUnROJcNx6tf7O-1" target="Zj26YUUUnROJcNx6tf7O-34">
          <mxGeometry relative="1" as="geometry" />
        </mxCell>
        <mxCell id="0lM58iqvCvIawj70J857-3" style="edgeStyle=orthogonalEdgeStyle;rounded=0;orthogonalLoop=1;jettySize=auto;html=1;exitX=0.5;exitY=0.5;exitDx=0;exitDy=0;exitPerimeter=0;entryX=0;entryY=0.5;entryDx=0;entryDy=0;" edge="1" parent="1" source="Zj26YUUUnROJcNx6tf7O-1" target="0lM58iqvCvIawj70J857-1">
          <mxGeometry relative="1" as="geometry" />
        </mxCell>
        <mxCell id="0lM58iqvCvIawj70J857-5" style="edgeStyle=orthogonalEdgeStyle;rounded=0;orthogonalLoop=1;jettySize=auto;html=1;exitX=0.5;exitY=0.5;exitDx=0;exitDy=0;exitPerimeter=0;" edge="1" parent="1" source="Zj26YUUUnROJcNx6tf7O-1" target="0lM58iqvCvIawj70J857-4">
          <mxGeometry relative="1" as="geometry" />
        </mxCell>
        <mxCell id="0lM58iqvCvIawj70J857-9" style="edgeStyle=orthogonalEdgeStyle;rounded=0;orthogonalLoop=1;jettySize=auto;html=1;exitX=0.5;exitY=0.5;exitDx=0;exitDy=0;exitPerimeter=0;entryX=0;entryY=0.5;entryDx=0;entryDy=0;" edge="1" parent="1" source="Zj26YUUUnROJcNx6tf7O-1" target="0lM58iqvCvIawj70J857-6">
          <mxGeometry relative="1" as="geometry" />
        </mxCell>
        <mxCell id="0lM58iqvCvIawj70J857-10" style="edgeStyle=orthogonalEdgeStyle;rounded=0;orthogonalLoop=1;jettySize=auto;html=1;exitX=0.5;exitY=0.5;exitDx=0;exitDy=0;exitPerimeter=0;entryX=0;entryY=0.5;entryDx=0;entryDy=0;" edge="1" parent="1" source="Zj26YUUUnROJcNx6tf7O-1" target="0lM58iqvCvIawj70J857-8">
          <mxGeometry relative="1" as="geometry" />
        </mxCell>
        <mxCell id="Zj26YUUUnROJcNx6tf7O-1" value="Quản lý&lt;br&gt;" style="shape=umlActor;verticalLabelPosition=bottom;verticalAlign=top;html=1;outlineConnect=0;" parent="1" vertex="1">
          <mxGeometry x="360" y="310" width="30" height="60" as="geometry" />
        </mxCell>
        <mxCell id="Zj26YUUUnROJcNx6tf7O-13" style="edgeStyle=orthogonalEdgeStyle;rounded=0;orthogonalLoop=1;jettySize=auto;html=1;exitX=0.5;exitY=0.5;exitDx=0;exitDy=0;exitPerimeter=0;" parent="1" source="Zj26YUUUnROJcNx6tf7O-2" target="Zj26YUUUnROJcNx6tf7O-11" edge="1">
          <mxGeometry relative="1" as="geometry" />
        </mxCell>
        <mxCell id="0lM58iqvCvIawj70J857-12" style="edgeStyle=orthogonalEdgeStyle;rounded=0;orthogonalLoop=1;jettySize=auto;html=1;exitX=0.5;exitY=0.5;exitDx=0;exitDy=0;exitPerimeter=0;" edge="1" parent="1" source="Zj26YUUUnROJcNx6tf7O-2" target="0lM58iqvCvIawj70J857-11">
          <mxGeometry relative="1" as="geometry" />
        </mxCell>
        <mxCell id="Zj26YUUUnROJcNx6tf7O-2" value="Nhân viên&lt;br&gt;" style="shape=umlActor;verticalLabelPosition=bottom;verticalAlign=top;html=1;outlineConnect=0;" parent="1" vertex="1">
          <mxGeometry x="430" y="820" width="30" height="60" as="geometry" />
        </mxCell>
        <mxCell id="Zj26YUUUnROJcNx6tf7O-14" style="edgeStyle=orthogonalEdgeStyle;rounded=0;orthogonalLoop=1;jettySize=auto;html=1;exitX=0.5;exitY=0.5;exitDx=0;exitDy=0;exitPerimeter=0;entryX=0.5;entryY=1;entryDx=0;entryDy=0;" parent="1" source="Zj26YUUUnROJcNx6tf7O-11" target="Zj26YUUUnROJcNx6tf7O-25" edge="1">
          <mxGeometry relative="1" as="geometry">
            <mxPoint x="225" y="190" as="targetPoint" />
          </mxGeometry>
        </mxCell>
        <mxCell id="Zj26YUUUnROJcNx6tf7O-20" style="edgeStyle=orthogonalEdgeStyle;rounded=0;orthogonalLoop=1;jettySize=auto;html=1;exitX=0.5;exitY=0.5;exitDx=0;exitDy=0;exitPerimeter=0;entryX=1;entryY=0.5;entryDx=0;entryDy=0;" parent="1" source="Zj26YUUUnROJcNx6tf7O-11" target="Zj26YUUUnROJcNx6tf7O-26" edge="1">
          <mxGeometry relative="1" as="geometry">
            <mxPoint x="50" y="355" as="targetPoint" />
          </mxGeometry>
        </mxCell>
        <mxCell id="Zj26YUUUnROJcNx6tf7O-29" style="edgeStyle=orthogonalEdgeStyle;rounded=0;orthogonalLoop=1;jettySize=auto;html=1;exitX=0.5;exitY=0.5;exitDx=0;exitDy=0;exitPerimeter=0;entryX=1;entryY=0.5;entryDx=0;entryDy=0;" parent="1" source="Zj26YUUUnROJcNx6tf7O-11" target="Zj26YUUUnROJcNx6tf7O-28" edge="1">
          <mxGeometry relative="1" as="geometry" />
        </mxCell>
        <mxCell id="Zj26YUUUnROJcNx6tf7O-11" value="Người dùng" style="shape=umlActor;verticalLabelPosition=bottom;verticalAlign=top;html=1;outlineConnect=0;" parent="1" vertex="1">
          <mxGeometry x="210" y="310" width="30" height="60" as="geometry" />
        </mxCell>
        <mxCell id="Zj26YUUUnROJcNx6tf7O-25" value="Đăng nhập" style="ellipse;whiteSpace=wrap;html=1;" parent="1" vertex="1">
          <mxGeometry x="155" y="100" width="140" height="70" as="geometry" />
        </mxCell>
        <mxCell id="Zj26YUUUnROJcNx6tf7O-26" value="Kiểm tra thanh toán" style="ellipse;whiteSpace=wrap;html=1;" parent="1" vertex="1">
          <mxGeometry x="-110" y="305" width="140" height="70" as="geometry" />
        </mxCell>
        <mxCell id="Zj26YUUUnROJcNx6tf7O-28" value="Quản lý đơn hàng" style="ellipse;whiteSpace=wrap;html=1;" parent="1" vertex="1">
          <mxGeometry x="-50" y="170" width="140" height="80" as="geometry" />
        </mxCell>
        <mxCell id="Zj26YUUUnROJcNx6tf7O-30" value="Cập nhật thông tin&amp;nbsp;&lt;br&gt;đơn hàng" style="ellipse;whiteSpace=wrap;html=1;" parent="1" vertex="1">
          <mxGeometry x="-250" y="70" width="140" height="70" as="geometry" />
        </mxCell>
        <mxCell id="Zj26YUUUnROJcNx6tf7O-31" value="Cập nhật trạng thái&lt;br&gt;đơn hàng" style="ellipse;whiteSpace=wrap;html=1;" parent="1" vertex="1">
          <mxGeometry x="-310" y="180" width="140" height="70" as="geometry" />
        </mxCell>
        <mxCell id="Zj26YUUUnROJcNx6tf7O-32" value="Extends" style="endArrow=block;endSize=16;endFill=0;html=1;rounded=0;" parent="1" source="Zj26YUUUnROJcNx6tf7O-30" target="Zj26YUUUnROJcNx6tf7O-28" edge="1">
          <mxGeometry width="160" relative="1" as="geometry">
            <mxPoint x="40" y="320" as="sourcePoint" />
            <mxPoint x="200" y="320" as="targetPoint" />
          </mxGeometry>
        </mxCell>
        <mxCell id="Zj26YUUUnROJcNx6tf7O-33" value="Extends" style="endArrow=block;endSize=16;endFill=0;html=1;rounded=0;" parent="1" source="Zj26YUUUnROJcNx6tf7O-31" target="Zj26YUUUnROJcNx6tf7O-28" edge="1">
          <mxGeometry width="160" relative="1" as="geometry">
            <mxPoint x="40" y="320" as="sourcePoint" />
            <mxPoint x="200" y="320" as="targetPoint" />
          </mxGeometry>
        </mxCell>
        <mxCell id="Zj26YUUUnROJcNx6tf7O-34" value="Thêm danh mục&amp;nbsp;" style="ellipse;whiteSpace=wrap;html=1;" parent="1" vertex="1">
          <mxGeometry x="520" y="100" width="140" height="70" as="geometry" />
        </mxCell>
        <mxCell id="0lM58iqvCvIawj70J857-1" value="Sửa đổi danh mục&amp;nbsp;" style="ellipse;whiteSpace=wrap;html=1;" vertex="1" parent="1">
          <mxGeometry x="690" y="190" width="140" height="70" as="geometry" />
        </mxCell>
        <mxCell id="0lM58iqvCvIawj70J857-4" value="Tạo và xóa tài khoản nhân viên&amp;nbsp;" style="ellipse;whiteSpace=wrap;html=1;" vertex="1" parent="1">
          <mxGeometry x="770" y="305" width="140" height="70" as="geometry" />
        </mxCell>
        <mxCell id="0lM58iqvCvIawj70J857-6" value="Thêm sản phẩm" style="ellipse;whiteSpace=wrap;html=1;" vertex="1" parent="1">
          <mxGeometry x="690" y="420" width="140" height="70" as="geometry" />
        </mxCell>
        <mxCell id="0lM58iqvCvIawj70J857-7" value="Gửi thông báo các đơn đặt hàng&amp;nbsp;" style="ellipse;whiteSpace=wrap;html=1;" vertex="1" parent="1">
          <mxGeometry x="630" y="990" width="140" height="70" as="geometry" />
        </mxCell>
        <mxCell id="0lM58iqvCvIawj70J857-8" value="Sửa đổi sản phẩm" style="ellipse;whiteSpace=wrap;html=1;" vertex="1" parent="1">
          <mxGeometry x="520" y="550" width="140" height="70" as="geometry" />
        </mxCell>
        <mxCell id="0lM58iqvCvIawj70J857-11" value="Tư vấn khách hàng" style="ellipse;whiteSpace=wrap;html=1;" vertex="1" parent="1">
          <mxGeometry x="630" y="815" width="140" height="70" as="geometry" />
        </mxCell>
        <mxCell id="0lM58iqvCvIawj70J857-15" style="edgeStyle=orthogonalEdgeStyle;rounded=0;orthogonalLoop=1;jettySize=auto;html=1;exitX=0.5;exitY=0.5;exitDx=0;exitDy=0;exitPerimeter=0;entryX=0;entryY=0.5;entryDx=0;entryDy=0;" edge="1" parent="1" source="0lM58iqvCvIawj70J857-14" target="0lM58iqvCvIawj70J857-7">
          <mxGeometry relative="1" as="geometry" />
        </mxCell>
        <mxCell id="0lM58iqvCvIawj70J857-14" value="Hệ thống" style="shape=umlActor;verticalLabelPosition=bottom;verticalAlign=top;html=1;" vertex="1" parent="1">
          <mxGeometry x="425" y="995" width="30" height="60" as="geometry" />
        </mxCell>
      </root>
    </mxGraphModel>
  </diagram>
</mxfile>
